<svg data-v-423bf9ae="" xmlns="http://www.w3.org/2000/svg" viewBox="0 0 226.34831328236118 60" class="font"><!----><!----><!----><g data-v-423bf9ae="" id="c4353e7d-e311-4f4c-858a-f4bc3d4c7685" fill="white" transform="matrix(5.61797736755893,0,0,5.61797736755893,-1.9662949297808865,-0.1685400131773349)"><path d="M2.80 10.50L0.35 10.50L0.35 6.97L2.95 6.97L2.95 6.97Q2.95 7.42 3.15 7.69L3.15 7.69L3.15 7.69Q3.35 7.95 3.62 8.10L3.62 8.10L3.62 8.10Q3.89 8.25 4.19 8.30L4.19 8.30L4.19 8.30Q4.49 8.36 4.72 8.37L4.72 8.37L4.72 8.37Q4.90 8.37 5.11 8.34L5.11 8.34L5.11 8.34Q5.32 8.32 5.50 8.24L5.50 8.24L5.50 8.24Q5.67 8.16 5.79 8.03L5.79 8.03L5.79 8.03Q5.91 7.90 5.91 7.67L5.91 7.67L5.91 7.67Q5.91 7.41 5.51 7.23L5.51 7.23L5.51 7.23Q5.11 7.06 4.51 6.89L4.51 6.89L4.51 6.89Q3.92 6.72 3.22 6.50L3.22 6.50L3.22 6.50Q2.52 6.29 1.93 5.91L1.93 5.91L1.93 5.91Q1.33 5.53 0.93 4.95L0.93 4.95L0.93 4.95Q0.53 4.37 0.53 3.47L0.53 3.47L0.53 3.47Q0.53 2.70 0.86 2.13L0.86 2.13L0.86 2.13Q1.19 1.55 1.69 1.19L1.69 1.19L1.69 1.19Q2.18 0.83 2.77 0.64L2.77 0.64L2.77 0.64Q3.35 0.46 3.86 0.46L3.86 0.46L3.86 0.46Q4.30 0.46 4.73 0.54L4.73 0.54L4.73 0.54Q5.17 0.62 5.56 0.78L5.56 0.78L5.56 0.78Q5.95 0.95 6.27 1.22L6.27 1.22L6.27 1.22Q6.58 1.50 6.79 1.89L6.79 1.89L6.93 0.71L9.34 0.71L9.34 4.23L6.80 4.23L6.80 4.23Q6.80 3.84 6.66 3.54L6.66 3.54L6.66 3.54Q6.52 3.23 6.28 3.02L6.28 3.02L6.28 3.02Q6.03 2.81 5.71 2.71L5.71 2.71L5.71 2.71Q5.38 2.60 5.01 2.60L5.01 2.60L5.01 2.60Q4.86 2.60 4.69 2.65L4.69 2.65L4.69 2.65Q4.52 2.70 4.38 2.79L4.38 2.79L4.38 2.79Q4.23 2.88 4.14 3.02L4.14 3.02L4.14 3.02Q4.05 3.16 4.05 3.35L4.05 3.35L4.05 3.35Q4.05 3.71 4.46 3.95L4.46 3.95L4.46 3.95Q4.87 4.19 5.49 4.40L5.49 4.40L5.49 4.40Q6.10 4.61 6.82 4.85L6.82 4.85L6.82 4.85Q7.53 5.10 8.15 5.46L8.15 5.46L8.15 5.46Q8.76 5.82 9.18 6.37L9.18 6.37L9.18 6.37Q9.59 6.92 9.59 7.74L9.59 7.74L9.59 7.74Q9.59 8.57 9.25 9.13L9.25 9.13L9.25 9.13Q8.90 9.69 8.37 10.04L8.37 10.04L8.37 10.04Q7.83 10.40 7.17 10.56L7.17 10.56L7.17 10.56Q6.51 10.71 5.88 10.71L5.88 10.71L5.88 10.71Q5.35 10.71 4.90 10.60L4.90 10.60L4.90 10.60Q4.45 10.49 4.09 10.30L4.09 10.30L4.09 10.30Q3.72 10.12 3.44 9.89L3.44 9.89L3.44 9.89Q3.15 9.66 2.95 9.42L2.95 9.42L2.80 10.50ZM14.21 8.67L14.21 10.50L10.29 10.50L10.29 8.67L10.88 8.67L10.88 5.32L10.29 5.32L10.29 3.50L13.54 3.50L13.54 8.67L14.21 8.67ZM10.68 1.46L10.68 1.46L10.68 1.46Q10.68 1.22 10.78 0.97L10.78 0.97L10.78 0.97Q10.88 0.71 11.07 0.50L11.07 0.50L11.07 0.50Q11.26 0.29 11.54 0.16L11.54 0.16L11.54 0.16Q11.83 0.03 12.19 0.03L12.19 0.03L12.19 0.03Q12.56 0.03 12.84 0.16L12.84 0.16L12.84 0.16Q13.13 0.29 13.33 0.50L13.33 0.50L13.33 0.50Q13.52 0.71 13.63 0.97L13.63 0.97L13.63 0.97Q13.73 1.22 13.73 1.46L13.73 1.46L13.73 1.46Q13.73 2.04 13.34 2.46L13.34 2.46L13.34 2.46Q12.95 2.87 12.19 2.87L12.19 2.87L12.19 2.87Q11.86 2.87 11.58 2.74L11.58 2.74L11.58 2.74Q11.31 2.62 11.11 2.41L11.11 2.41L11.11 2.41Q10.91 2.21 10.79 1.96L10.79 1.96L10.79 1.96Q10.68 1.71 10.68 1.46ZM18.87 8.67L18.87 10.50L14.91 10.50L14.91 8.67L15.53 8.67L15.53 5.32L14.92 5.32L14.92 3.50L17.56 3.50L17.98 4.40L17.98 4.40Q18.12 4.14 18.27 3.92L18.27 3.92L18.27 3.92Q18.42 3.70 18.66 3.52L18.66 3.52L18.66 3.52Q18.90 3.35 19.25 3.25L19.25 3.25L19.25 3.25Q19.60 3.15 20.15 3.15L20.15 3.15L20.15 5.67L20.15 5.67Q19.19 5.67 18.68 5.99L18.68 5.99L18.68 5.99Q18.17 6.30 18.17 7.22L18.17 7.22L18.17 8.67L18.87 8.67ZM24.63 8.67L24.63 10.50L20.71 10.50L20.71 8.67L21.29 8.67L21.29 5.32L20.71 5.32L20.71 3.50L23.95 3.50L23.95 8.67L24.63 8.67ZM21.10 1.46L21.10 1.46L21.10 1.46Q21.10 1.22 21.20 0.97L21.20 0.97L21.20 0.97Q21.29 0.71 21.48 0.50L21.48 0.50L21.48 0.50Q21.67 0.29 21.96 0.16L21.96 0.16L21.96 0.16Q22.25 0.03 22.61 0.03L22.61 0.03L22.61 0.03Q22.97 0.03 23.26 0.16L23.26 0.16L23.26 0.16Q23.55 0.29 23.74 0.50L23.74 0.50L23.74 0.50Q23.94 0.71 24.04 0.97L24.04 0.97L24.04 0.97Q24.15 1.22 24.15 1.46L24.15 1.46L24.15 1.46Q24.15 2.04 23.76 2.46L23.76 2.46L23.76 2.46Q23.37 2.87 22.61 2.87L22.61 2.87L22.61 2.87Q22.27 2.87 22.00 2.74L22.00 2.74L22.00 2.74Q21.73 2.62 21.52 2.41L21.52 2.41L21.52 2.41Q21.32 2.21 21.21 1.96L21.21 1.96L21.21 1.96Q21.10 1.71 21.10 1.46ZM25.19 5.35L25.19 3.50L28.57 3.50L28.57 6.87L28.57 6.87Q28.57 7.78 28.73 8.21L28.73 8.21L28.73 8.21Q28.90 8.64 29.33 8.64L29.33 8.64L29.33 8.64Q29.69 8.64 29.95 8.34L29.95 8.34L29.95 8.34Q30.21 8.05 30.21 7.57L30.21 7.57L30.21 5.35L29.29 5.35L29.29 3.50L32.91 3.50L32.91 8.64L33.60 8.64L33.60 10.50L30.95 10.50L30.58 9.62L30.58 9.62Q30.46 9.74 30.30 9.93L30.30 9.93L30.30 9.93Q30.14 10.12 29.91 10.29L29.91 10.29L29.91 10.29Q29.68 10.46 29.36 10.58L29.36 10.58L29.36 10.58Q29.04 10.70 28.59 10.70L28.59 10.70L28.59 10.70Q27.79 10.70 27.25 10.49L27.25 10.49L27.25 10.49Q26.71 10.28 26.38 9.86L26.38 9.86L26.38 9.86Q26.05 9.44 25.91 8.79L25.91 8.79L25.91 8.79Q25.77 8.15 25.77 7.28L25.77 7.28L25.77 5.35L25.19 5.35ZM35.77 10.50L34.02 10.50L34.02 7.98L35.90 7.98L35.90 7.98Q35.90 8.26 36.07 8.44L36.07 8.44L36.07 8.44Q36.25 8.62 36.48 8.73L36.48 8.73L36.48 8.73Q36.72 8.83 36.97 8.88L36.97 8.88L36.97 8.88Q37.23 8.92 37.38 8.92L37.38 8.92L37.38 8.92Q37.59 8.92 37.79 8.83L37.79 8.83L37.79 8.83Q38.00 8.74 38.00 8.44L38.00 8.44L38.00 8.44Q38.00 8.29 37.81 8.18L37.81 8.18L37.81 8.18Q37.63 8.08 37.34 7.99L37.34 7.99L37.34 7.99Q37.06 7.91 36.69 7.82L36.69 7.82L36.69 7.82Q36.32 7.73 35.94 7.60L35.94 7.60L35.94 7.60Q35.57 7.48 35.25 7.29L35.25 7.29L35.25 7.29Q34.92 7.11 34.65 6.85L34.65 6.85L34.65 6.85Q34.38 6.58 34.23 6.22L34.23 6.22L34.23 6.22Q34.08 5.85 34.08 5.36L34.08 5.36L34.08 5.36Q34.08 4.83 34.32 4.45L34.32 4.45L34.32 4.45Q34.57 4.06 34.94 3.81L34.94 3.81L34.94 3.81Q35.31 3.57 35.73 3.45L35.73 3.45L35.73 3.45Q36.16 3.33 36.54 3.33L36.54 3.33L36.54 3.33Q37.25 3.33 37.83 3.65L37.83 3.65L37.83 3.65Q38.40 3.98 38.63 4.42L38.63 4.42L38.74 3.50L40.46 3.50L40.46 6.02L38.64 6.02L38.64 6.02Q38.64 5.80 38.51 5.61L38.51 5.61L38.51 5.61Q38.39 5.42 38.19 5.27L38.19 5.27L38.19 5.27Q37.98 5.12 37.73 5.04L37.73 5.04L37.73 5.04Q37.48 4.96 37.21 4.96L37.21 4.96L37.21 4.96Q36.99 4.96 36.83 5.08L36.83 5.08L36.83 5.08Q36.67 5.19 36.67 5.46L36.67 5.46L36.67 5.46Q36.67 5.61 36.81 5.72L36.81 5.72L36.81 5.72Q36.95 5.82 37.19 5.92L37.19 5.92L37.19 5.92Q37.44 6.02 37.74 6.12L37.74 6.12L37.74 6.12Q38.05 6.22 38.39 6.33L38.39 6.33L38.39 6.33Q38.78 6.47 39.19 6.63L39.19 6.63L39.19 6.63Q39.59 6.79 39.91 7.04L39.91 7.04L39.91 7.04Q40.24 7.28 40.44 7.65L40.44 7.65L40.44 7.65Q40.64 8.02 40.64 8.57L40.64 8.57L40.64 8.57Q40.64 9.06 40.43 9.45L40.43 9.45L40.43 9.45Q40.21 9.84 39.85 10.12L39.85 10.12L39.85 10.12Q39.49 10.39 39.02 10.53L39.02 10.53L39.02 10.53Q38.54 10.67 38.04 10.67L38.04 10.67L38.04 10.67Q37.28 10.67 36.72 10.36L36.72 10.36L36.72 10.36Q36.15 10.05 35.90 9.65L35.90 9.65L35.77 10.50Z"></path></g><!----><!----></svg>